<svg width="512" height="512" version="1.1" xmlns="http://www.w3.org/2000/svg" desc="Created with imagetracer.js version 1.2.6" ><path fill="rgb(0,0,0)" stroke="rgb(0,0,0)" stroke-width="1" opacity="0" d="M 0 0 L 12 0.5 L 4 4 L 0.5 12 L 0 0 Z " /><path fill="rgb(0,0,0)" stroke="rgb(0,0,0)" stroke-width="1" opacity="0" d="M 17.5 0 L 494 0.5 L 488.5 3 L 370.5 121 L 370 40.5 Q 368.2 33.3 362.5 30 L 355.5 28 L 348.5 30 L 343 35.5 L 341 40.5 L 341 159.5 L 346.5 168 L 352.5 171 L 471.5 171 Q 478.7 169.2 482 163.5 L 484 156.5 L 482 149.5 L 476.5 144 L 471.5 142 L 391 141.5 L 509 23.5 L 511.5 18 L 512 494.5 L 511 494.5 L 509 488.5 L 391 370.5 L 471.5 370 Q 478.7 368.2 482 362.5 L 484 355.5 L 482 348.5 L 476.5 343 L 471.5 341 L 352.5 341 L 344 346.5 L 341 352.5 L 341 471.5 Q 342.8 478.7 348.5 482 L 355.5 484 L 362.5 482 L 368 476.5 L 370 471.5 L 370.5 391 L 488.5 509 L 495 511.5 L 18.5 512 L 18.5 511 L 23.5 509 L 141.5 391 L 142 471.5 Q 143.8 478.7 149.5 482 L 156.5 484 L 163.5 482 L 169 476.5 L 171 471.5 L 171 352.5 L 165.5 344 L 159.5 341 L 40.5 341 Q 33.3 342.8 30 348.5 L 28 355.5 L 30 362.5 L 35.5 368 L 40.5 370 L 121 370.5 L 3 488.5 L 0.5 494 L 0 17.5 L 1 17.5 L 3 23.5 L 121 141.5 L 40.5 142 Q 33.3 143.8 30 149.5 L 28 156.5 L 30 163.5 L 35.5 169 L 40.5 171 L 159.5 171 L 168 165.5 L 171 159.5 L 171 40.5 Q 169.2 33.3 163.5 30 L 156.5 28 L 149.5 30 L 144 35.5 L 142 40.5 L 141.5 121 L 23.5 3 L 17.5 1 L 17.5 0 Z " /><path fill="rgb(0,0,0)" stroke="rgb(0,0,0)" stroke-width="1" opacity="0" d="M 502.5 0 L 512 0 L 512 9.5 L 511 9.5 L 505.5 2 Q 501.7 1.7 502.5 0 Z " /><path fill="rgb(0,0,0)" stroke="rgb(0,0,0)" stroke-width="1" opacity="0" d="M 511.5 500 L 512 512 L 500 511.5 L 508 508 L 511.5 500 Z " /><path fill="rgb(0,0,0)" stroke="rgb(0,0,0)" stroke-width="1" opacity="0" d="M 0.5 502 L 6.5 510 L 10 511.5 L 0 512 L 0.5 502 Z " /><path fill="rgb(0,0,0)" stroke="rgb(0,0,0)" stroke-width="1" opacity="0.6823529411764706" d="M 12.5 0 L 17 0.5 L 12.5 1 L 12.5 0 Z " /><path fill="rgb(0,0,0)" stroke="rgb(0,0,0)" stroke-width="1" opacity="0.6823529411764706" d="M 23.5 3 L 142 120.5 L 142.5 40 L 143 122 L 141.5 122 L 23.5 3 Z " /><path fill="rgb(0,0,0)" stroke="rgb(0,0,0)" stroke-width="1" opacity="0.6823529411764706" d="M 488.5 3 L 370.5 122 L 369 121.5 L 369 40.5 L 370 40.5 L 370.5 121 L 488.5 3 Z " /><path fill="rgb(0,0,0)" stroke="rgb(0,0,0)" stroke-width="1" opacity="0.6823529411764706" d="M 0.5 12 L 1 16.5 L 0 16.5 L 0.5 12 Z " /><path fill="rgb(0,0,0)" stroke="rgb(0,0,0)" stroke-width="1" opacity="0.6823529411764706" d="M 3.5 23 L 122 141.5 L 122 143 L 40 142.5 L 121 141.5 L 3.5 23 Z " /><path fill="rgb(0,0,0)" stroke="rgb(0,0,0)" stroke-width="1" opacity="0.6823529411764706" d="M 508.5 23 L 391.5 142 L 472 142.5 L 390 143 L 390 141.5 L 508.5 23 Z " /><path fill="rgb(0,0,0)" stroke="rgb(0,0,0)" stroke-width="1" opacity="0.6823529411764706" d="M 170.5 40 L 171 159.5 L 170 159.5 L 170.5 40 Z " /><path fill="rgb(0,0,0)" stroke="rgb(0,0,0)" stroke-width="1" opacity="0.6823529411764706" d="M 341.5 40 L 342 159.5 L 341 159.5 L 341.5 40 Z " /><path fill="rgb(0,0,0)" stroke="rgb(0,0,0)" stroke-width="1" opacity="0.6823529411764706" d="M 169.5 161 L 170 162.5 L 168 163.5 L 169.5 161 Z " /><path fill="rgb(0,0,0)" stroke="rgb(0,0,0)" stroke-width="1" opacity="0.6823529411764706" d="M 342.5 161 L 344 163.5 L 342 162.5 L 342.5 161 Z " /><path fill="rgb(0,0,0)" stroke="rgb(0,0,0)" stroke-width="1" opacity="0.6823529411764706" d="M 167.5 165 L 165.5 168 L 167.5 165 Z " /><path fill="rgb(0,0,0)" stroke="rgb(0,0,0)" stroke-width="1" opacity="0.6823529411764706" d="M 344.5 165 L 346.5 168 L 344.5 165 Z " /><path fill="rgb(0,0,0)" stroke="rgb(0,0,0)" stroke-width="1" opacity="0.6823529411764706" d="M 163.5 168 L 162.5 170 L 161 169.5 L 163.5 168 Z " /><path fill="rgb(0,0,0)" stroke="rgb(0,0,0)" stroke-width="1" opacity="0.6823529411764706" d="M 348.5 168 L 351 169.5 L 349.5 170 L 348.5 168 Z " /><path fill="rgb(0,0,0)" stroke="rgb(0,0,0)" stroke-width="1" opacity="0.6823529411764706" d="M 40.5 170 L 160 170.5 L 40.5 171 L 40.5 170 Z " /><path fill="rgb(0,0,0)" stroke="rgb(0,0,0)" stroke-width="1" opacity="0.6823529411764706" d="M 352.5 170 L 472 170.5 L 352.5 171 L 352.5 170 Z " /><path fill="rgb(0,0,0)" stroke="rgb(0,0,0)" stroke-width="1" opacity="0.6823529411764706" d="M 40.5 341 L 160 341.5 L 40.5 342 L 40.5 341 Z " /><path fill="rgb(0,0,0)" stroke="rgb(0,0,0)" stroke-width="1" opacity="0.6823529411764706" d="M 352.5 341 L 472 341.5 L 352.5 342 L 352.5 341 Z " /><path fill="rgb(0,0,0)" stroke="rgb(0,0,0)" stroke-width="1" opacity="0.6823529411764706" d="M 161.5 342 L 164 343.5 L 162.5 343 L 161.5 342 Z " /><path fill="rgb(0,0,0)" stroke="rgb(0,0,0)" stroke-width="1" opacity="0.6823529411764706" d="M 349.5 342 L 351 342.5 L 348.5 344 L 349.5 342 Z " /><path fill="rgb(0,0,0)" stroke="rgb(0,0,0)" stroke-width="1" opacity="0.6823529411764706" d="M 165.5 344 L 167.5 347 L 165.5 344 Z " /><path fill="rgb(0,0,0)" stroke="rgb(0,0,0)" stroke-width="1" opacity="0.6823529411764706" d="M 346.5 344 L 344.5 347 L 346.5 344 Z " /><path fill="rgb(0,0,0)" stroke="rgb(0,0,0)" stroke-width="1" opacity="0.6823529411764706" d="M 168.5 348 L 170 350.5 L 169 350.5 L 168.5 348 Z " /><path fill="rgb(0,0,0)" stroke="rgb(0,0,0)" stroke-width="1" opacity="0.6823529411764706" d="M 343.5 348 L 343 349.5 L 342.5 351 L 342 349.5 L 343.5 348 Z " /><path fill="rgb(0,0,0)" stroke="rgb(0,0,0)" stroke-width="1" opacity="0.6823529411764706" d="M 170.5 352 L 171 471.5 L 170 471.5 L 170.5 352 Z " /><path fill="rgb(0,0,0)" stroke="rgb(0,0,0)" stroke-width="1" opacity="0.6823529411764706" d="M 341.5 352 L 342 471.5 L 341 471.5 L 341.5 352 Z " /><path fill="rgb(0,0,0)" stroke="rgb(0,0,0)" stroke-width="1" opacity="0.6823529411764706" d="M 40.5 369 L 121.5 369 L 122 370.5 L 3 488.5 L 120.5 370 L 40.5 370 L 40.5 369 Z " /><path fill="rgb(0,0,0)" stroke="rgb(0,0,0)" stroke-width="1" opacity="0.6823529411764706" d="M 390 369 L 472 369.5 L 391 370.5 L 508.5 489 L 390 370.5 L 390 369 Z " /><path fill="rgb(0,0,0)" stroke="rgb(0,0,0)" stroke-width="1" opacity="0.6823529411764706" d="M 141.5 390 L 143 390.5 L 143 471.5 L 142 471.5 L 141.5 391 L 23 508.5 L 141.5 390 Z " /><path fill="rgb(0,0,0)" stroke="rgb(0,0,0)" stroke-width="1" opacity="0.6823529411764706" d="M 369 390 L 370.5 390 L 489 508.5 L 370 391.5 L 369.5 472 L 369 390 Z " /><path fill="rgb(0,0,0)" stroke="rgb(0,0,0)" stroke-width="1" opacity="0.6823529411764706" d="M 511.5 495 L 512 499.5 L 511 499.5 L 511.5 495 Z " /><path fill="rgb(0,0,0)" stroke="rgb(0,0,0)" stroke-width="1" opacity="0.6823529411764706" d="M 495.5 511 L 500 511.5 L 495.5 512 L 495.5 511 Z " /><path fill="rgb(0,0,0)" stroke="rgb(0,0,0)" stroke-width="1" opacity="0.996078431372549" d="M 496.5 0 L 500 0.5 L 496.5 1 L 496.5 0 Z " /><path fill="rgb(0,0,0)" stroke="rgb(0,0,0)" stroke-width="1" opacity="0.996078431372549" d="M 6.5 3 L 3.5 7 L 6.5 3 Z " /><path fill="rgb(0,0,0)" stroke="rgb(0,0,0)" stroke-width="1" opacity="0.996078431372549" d="M 506.5 3 L 508.5 6 L 506.5 3 Z " /><path fill="rgb(0,0,0)" stroke="rgb(0,0,0)" stroke-width="1" opacity="0.996078431372549" d="M 511.5 12 L 512 15.5 L 511 15.5 L 511.5 12 Z " /><path fill="rgb(0,0,0)" stroke="rgb(0,0,0)" stroke-width="1" opacity="0.996078431372549" d="M 148.5 31 L 145.5 35 L 148.5 31 Z " /><path fill="rgb(0,0,0)" stroke="rgb(0,0,0)" stroke-width="1" opacity="0.996078431372549" d="M 164.5 31 L 167.5 35 L 164.5 31 Z " /><path fill="rgb(0,0,0)" stroke="rgb(0,0,0)" stroke-width="1" opacity="0.996078431372549" d="M 347.5 31 L 344.5 35 L 347.5 31 Z " /><path fill="rgb(0,0,0)" stroke="rgb(0,0,0)" stroke-width="1" opacity="0.996078431372549" d="M 363.5 31 L 366.5 35 L 363.5 31 Z " /><path fill="rgb(0,0,0)" stroke="rgb(0,0,0)" stroke-width="1" opacity="0.996078431372549" d="M 34.5 145 L 31.5 149 L 34.5 145 Z " /><path fill="rgb(0,0,0)" stroke="rgb(0,0,0)" stroke-width="1" opacity="0.996078431372549" d="M 477.5 145 L 480.5 149 L 477.5 145 Z " /><path fill="rgb(0,0,0)" stroke="rgb(0,0,0)" stroke-width="1" opacity="0.996078431372549" d="M 31.5 164 L 34.5 168 L 31.5 164 Z " /><path fill="rgb(0,0,0)" stroke="rgb(0,0,0)" stroke-width="1" opacity="0.996078431372549" d="M 480.5 164 L 477.5 168 L 480.5 164 Z " /><path fill="rgb(0,0,0)" stroke="rgb(0,0,0)" stroke-width="1" opacity="0.996078431372549" d="M 34.5 344 L 31.5 348 L 34.5 344 Z " /><path fill="rgb(0,0,0)" stroke="rgb(0,0,0)" stroke-width="1" opacity="0.996078431372549" d="M 477.5 344 L 480.5 348 L 477.5 344 Z " /><path fill="rgb(0,0,0)" stroke="rgb(0,0,0)" stroke-width="1" opacity="0.996078431372549" d="M 31.5 363 L 34.5 367 L 31.5 363 Z " /><path fill="rgb(0,0,0)" stroke="rgb(0,0,0)" stroke-width="1" opacity="0.996078431372549" d="M 480.5 363 L 477.5 367 L 480.5 363 Z " /><path fill="rgb(0,0,0)" stroke="rgb(0,0,0)" stroke-width="1" opacity="0.996078431372549" d="M 145.5 477 L 148.5 481 L 145.5 477 Z " /><path fill="rgb(0,0,0)" stroke="rgb(0,0,0)" stroke-width="1" opacity="0.996078431372549" d="M 167.5 477 L 164.5 481 L 167.5 477 Z " /><path fill="rgb(0,0,0)" stroke="rgb(0,0,0)" stroke-width="1" opacity="0.996078431372549" d="M 344.5 477 L 347.5 481 L 344.5 477 Z " /><path fill="rgb(0,0,0)" stroke="rgb(0,0,0)" stroke-width="1" opacity="0.996078431372549" d="M 366.5 477 L 363.5 481 L 366.5 477 Z " /><path fill="rgb(0,0,0)" stroke="rgb(0,0,0)" stroke-width="1" opacity="0.996078431372549" d="M 0.5 496 L 1 499.5 L 0 499.5 L 0.5 496 Z " /><path fill="rgb(0,0,0)" stroke="rgb(0,0,0)" stroke-width="1" opacity="0.996078431372549" d="M 508.5 505 L 505.5 509 L 508.5 505 Z " /><path fill="rgb(0,0,0)" stroke="rgb(0,0,0)" stroke-width="1" opacity="0.996078431372549" d="M 3.5 506 L 5.5 509 L 3.5 506 Z " /><path fill="rgb(0,0,0)" stroke="rgb(0,0,0)" stroke-width="1" opacity="0.996078431372549" d="M 12.5 511 L 16 511.5 L 12.5 512 L 12.5 511 Z " /><path fill="rgb(0,0,0)" stroke="rgb(0,0,0)" stroke-width="1" opacity="1" d="M 11.5 1 Q 20 0 23.5 4 L 142.5 123 L 143 39.5 L 149.5 31 Q 152.4 28.4 158.5 29 Q 165 30.5 168 35.5 L 170 39.5 L 170 159.5 L 165.5 167 L 159.5 170 L 39.5 170 L 31 163.5 Q 28.4 160.6 29 154.5 Q 30.5 148 35.5 145 L 39.5 143 L 123 142.5 L 4 23.5 Q 0 20 1 11.5 Q 2.6 4.6 8.5 2 L 11.5 1 Z " /><path fill="rgb(0,0,0)" stroke="rgb(0,0,0)" stroke-width="1" opacity="1" d="M 493.5 1 L 502.5 1 L 510 7.5 Q 512.5 11 511 18.5 L 509 22.5 L 389 142.5 L 472.5 143 L 481 149.5 Q 483.6 152.4 483 158.5 Q 481.5 165 476.5 168 L 472.5 170 L 352.5 170 L 345 165.5 L 342 159.5 L 342 39.5 L 348.5 31 Q 351.4 28.4 357.5 29 Q 364 30.5 367 35.5 L 369 39.5 L 369.5 123 L 489.5 3 L 493.5 1 Z " /><path fill="rgb(0,0,0)" stroke="rgb(0,0,0)" stroke-width="1" opacity="1" d="M 39.5 342 L 159.5 342 L 167 346.5 L 170 352.5 L 170 472.5 L 163.5 481 Q 160.6 483.6 154.5 483 Q 148 481.5 145 476.5 L 143 472.5 L 142.5 389 L 22.5 509 Q 18.5 512.5 9.5 511 L 2 504.5 Q -0.5 501 1 493.5 L 3 489.5 L 123 369.5 L 39.5 369 L 31 362.5 Q 28.4 359.6 29 353.5 Q 30.5 347 35.5 344 L 39.5 342 Z " /><path fill="rgb(0,0,0)" stroke="rgb(0,0,0)" stroke-width="1" opacity="1" d="M 352.5 342 L 472.5 342 L 481 348.5 Q 483.6 351.4 483 357.5 Q 481.5 364 476.5 367 L 472.5 369 L 389 369.5 L 508 488.5 Q 512 492 511 500.5 Q 509.4 507.4 503.5 510 L 494.5 511 L 488.5 508 L 369.5 389 L 369 472.5 L 362.5 481 Q 359.6 483.6 353.5 483 Q 347 481.5 344 476.5 L 342 472.5 L 342 352.5 L 346.5 345 L 352.5 342 Z " /></svg>