<svg width="512" height="512" version="1.1" xmlns="http://www.w3.org/2000/svg" desc="Created with imagetracer.js version 1.2.6" ><path fill="rgb(0,0,0)" stroke="rgb(0,0,0)" stroke-width="1" opacity="0" d="M 0 0 L 10 0.5 L 2 6.5 L 0.5 10 L 0 0 Z " /><path fill="rgb(0,0,0)" stroke="rgb(0,0,0)" stroke-width="1" opacity="0" d="M 132.5 0 L 380 0.5 L 373 4 L 370 9.5 L 370 18.5 L 375.5 26 L 383.5 29 L 462 29.5 L 344 147.5 Q 340 151 341 159.5 Q 342.5 166 347.5 169 Q 351.1 171.9 358.5 171 L 364.5 168 L 482.5 50 L 483 128.5 Q 484.2 136.3 489.5 140 Q 493.5 143.5 502.5 142 L 508 139 L 511.5 132 L 512 379.5 L 511 379.5 L 508 373 L 502.5 370 L 493.5 370 L 486 375.5 L 483 383.5 L 482.5 462 L 364.5 344 L 354.5 341 Q 346.4 342.4 343 348.5 L 341 357.5 L 344 364.5 L 462 482.5 L 383.5 483 Q 375.7 484.2 372 489.5 Q 368.5 493.5 370 502.5 L 373 508 L 380 511.5 L 132.5 512 L 132.5 511 L 139 508 L 142 502.5 L 142 493.5 L 136.5 486 L 128.5 483 L 50 482.5 L 168 364.5 L 171 354.5 Q 169.6 346.4 163.5 343 L 154.5 341 L 147.5 344 L 29.5 462 L 29 383.5 Q 27.8 375.7 22.5 372 Q 18.5 368.5 9.5 370 L 4 373 L 0.5 380 L 0 132.5 L 1 132.5 L 4 139 L 9.5 142 L 18.5 142 L 26 136.5 L 29 128.5 L 29.5 50 L 147.5 168 L 157.5 171 Q 165.6 169.6 169 163.5 L 171 154.5 L 168 147.5 L 50 29.5 L 128.5 29 Q 136.3 27.8 140 22.5 Q 143.5 18.5 142 9.5 L 139 4 L 132.5 1 L 132.5 0 Z " /><path fill="rgb(0,0,0)" stroke="rgb(0,0,0)" stroke-width="1" opacity="0" d="M 502.5 0 L 512 0 L 512 9.5 L 511 9.5 L 505.5 2 Q 501.7 1.7 502.5 0 Z " /><path fill="rgb(0,0,0)" stroke="rgb(0,0,0)" stroke-width="1" opacity="0" d="M 0.5 502 L 6.5 510 L 10 511.5 L 0 512 L 0.5 502 Z " /><path fill="rgb(0,0,0)" stroke="rgb(0,0,0)" stroke-width="1" opacity="0" d="M 511.5 502 L 512 512 L 502 511.5 L 510 505.5 L 511.5 502 Z " /><path fill="rgb(0,0,0)" stroke="rgb(0,0,0)" stroke-width="1" opacity="0.6509803921568628" d="M 134.5 1 L 135.5 3 L 134.5 1 Z " /><path fill="rgb(0,0,0)" stroke="rgb(0,0,0)" stroke-width="1" opacity="0.6509803921568628" d="M 377.5 1 L 376.5 3 L 377.5 1 Z " /><path fill="rgb(0,0,0)" stroke="rgb(0,0,0)" stroke-width="1" opacity="0.6509803921568628" d="M 511.5 10 L 512 12.5 L 511 12.5 L 511.5 10 Z " /><path fill="rgb(0,0,0)" stroke="rgb(0,0,0)" stroke-width="1" opacity="0.6509803921568628" d="M 139.5 22 L 136.5 26 L 139.5 22 Z " /><path fill="rgb(0,0,0)" stroke="rgb(0,0,0)" stroke-width="1" opacity="0.6509803921568628" d="M 372.5 22 L 375.5 26 L 372.5 22 Z " /><path fill="rgb(0,0,0)" stroke="rgb(0,0,0)" stroke-width="1" opacity="0.6509803921568628" d="M 49 28 L 129 28.5 L 50 29.5 L 167.5 148 L 49 29.5 L 49 28 Z " /><path fill="rgb(0,0,0)" stroke="rgb(0,0,0)" stroke-width="1" opacity="0.6509803921568628" d="M 383.5 28 L 462.5 28 L 463 29.5 L 344 147.5 L 461.5 29 L 383.5 29 L 383.5 28 Z " /><path fill="rgb(0,0,0)" stroke="rgb(0,0,0)" stroke-width="1" opacity="0.6509803921568628" d="M 28 49 L 29.5 49 L 148 167.5 L 29 50.5 L 28.5 129 L 28 49 Z " /><path fill="rgb(0,0,0)" stroke="rgb(0,0,0)" stroke-width="1" opacity="0.6509803921568628" d="M 482.5 49 L 484 49.5 L 484 128.5 L 483 128.5 L 482.5 50 L 364 167.5 L 482.5 49 Z " /><path fill="rgb(0,0,0)" stroke="rgb(0,0,0)" stroke-width="1" opacity="0.6509803921568628" d="M 1.5 134 L 2.5 136 L 1.5 134 Z " /><path fill="rgb(0,0,0)" stroke="rgb(0,0,0)" stroke-width="1" opacity="0.6509803921568628" d="M 510.5 134 L 509.5 136 L 510.5 134 Z " /><path fill="rgb(0,0,0)" stroke="rgb(0,0,0)" stroke-width="1" opacity="0.6509803921568628" d="M 25.5 136 L 22.5 140 L 25.5 136 Z " /><path fill="rgb(0,0,0)" stroke="rgb(0,0,0)" stroke-width="1" opacity="0.6509803921568628" d="M 486.5 136 L 489.5 140 L 486.5 136 Z " /><path fill="rgb(0,0,0)" stroke="rgb(0,0,0)" stroke-width="1" opacity="0.6509803921568628" d="M 341.5 153 L 342 155.5 L 341 155.5 L 341.5 153 Z " /><path fill="rgb(0,0,0)" stroke="rgb(0,0,0)" stroke-width="1" opacity="0.6509803921568628" d="M 170.5 154 L 171 157.5 L 170 157.5 L 170.5 154 Z " /><path fill="rgb(0,0,0)" stroke="rgb(0,0,0)" stroke-width="1" opacity="0.6509803921568628" d="M 341.5 157 L 342 159.5 L 341 159.5 L 341.5 157 Z " /><path fill="rgb(0,0,0)" stroke="rgb(0,0,0)" stroke-width="1" opacity="0.6509803921568628" d="M 168.5 163 L 167.5 165 L 168.5 163 Z " /><path fill="rgb(0,0,0)" stroke="rgb(0,0,0)" stroke-width="1" opacity="0.6509803921568628" d="M 343.5 164 L 347.5 169 L 343.5 164 Z " /><path fill="rgb(0,0,0)" stroke="rgb(0,0,0)" stroke-width="1" opacity="0.6509803921568628" d="M 164.5 167 L 163.5 169 L 164.5 167 Z " /><path fill="rgb(0,0,0)" stroke="rgb(0,0,0)" stroke-width="1" opacity="0.6509803921568628" d="M 155.5 170 L 158 170.5 L 155.5 171 L 155.5 170 Z " /><path fill="rgb(0,0,0)" stroke="rgb(0,0,0)" stroke-width="1" opacity="0.6509803921568628" d="M 352.5 170 L 359 170.5 L 352.5 171 L 352.5 170 Z " /><path fill="rgb(0,0,0)" stroke="rgb(0,0,0)" stroke-width="1" opacity="0.6509803921568628" d="M 154.5 341 L 158 341.5 L 154.5 342 L 154.5 341 Z " /><path fill="rgb(0,0,0)" stroke="rgb(0,0,0)" stroke-width="1" opacity="0.6509803921568628" d="M 354.5 341 L 358 341.5 L 354.5 342 L 354.5 341 Z " /><path fill="rgb(0,0,0)" stroke="rgb(0,0,0)" stroke-width="1" opacity="0.6509803921568628" d="M 163.5 343 L 164.5 345 L 163.5 343 Z " /><path fill="rgb(0,0,0)" stroke="rgb(0,0,0)" stroke-width="1" opacity="0.6509803921568628" d="M 348.5 343 L 347.5 345 L 348.5 343 Z " /><path fill="rgb(0,0,0)" stroke="rgb(0,0,0)" stroke-width="1" opacity="0.6509803921568628" d="M 147.5 344 L 29.5 463 L 28 462.5 L 28 383.5 L 29 383.5 L 29.5 462 L 147.5 344 Z " /><path fill="rgb(0,0,0)" stroke="rgb(0,0,0)" stroke-width="1" opacity="0.6509803921568628" d="M 364.5 344 L 483 461.5 L 483.5 383 L 484 463 L 482.5 463 L 364.5 344 Z " /><path fill="rgb(0,0,0)" stroke="rgb(0,0,0)" stroke-width="1" opacity="0.6509803921568628" d="M 167.5 347 L 168.5 349 L 167.5 347 Z " /><path fill="rgb(0,0,0)" stroke="rgb(0,0,0)" stroke-width="1" opacity="0.6509803921568628" d="M 344.5 347 L 343.5 349 L 344.5 347 Z " /><path fill="rgb(0,0,0)" stroke="rgb(0,0,0)" stroke-width="1" opacity="0.6509803921568628" d="M 170.5 354 L 171 356.5 L 170 356.5 L 170.5 354 Z " /><path fill="rgb(0,0,0)" stroke="rgb(0,0,0)" stroke-width="1" opacity="0.6509803921568628" d="M 341.5 354 L 342 357.5 L 341 357.5 L 341.5 354 Z " /><path fill="rgb(0,0,0)" stroke="rgb(0,0,0)" stroke-width="1" opacity="0.6509803921568628" d="M 167.5 364 L 50.5 483 L 129 483.5 L 49 484 L 49 482.5 L 167.5 364 Z " /><path fill="rgb(0,0,0)" stroke="rgb(0,0,0)" stroke-width="1" opacity="0.6509803921568628" d="M 344.5 364 L 463 482.5 L 463 484 L 383 483.5 L 462 482.5 L 344.5 364 Z " /><path fill="rgb(0,0,0)" stroke="rgb(0,0,0)" stroke-width="1" opacity="0.6509803921568628" d="M 22.5 372 L 25.5 376 L 22.5 372 Z " /><path fill="rgb(0,0,0)" stroke="rgb(0,0,0)" stroke-width="1" opacity="0.6509803921568628" d="M 489.5 372 L 486.5 376 L 489.5 372 Z " /><path fill="rgb(0,0,0)" stroke="rgb(0,0,0)" stroke-width="1" opacity="0.6509803921568628" d="M 2.5 376 L 1.5 378 L 2.5 376 Z " /><path fill="rgb(0,0,0)" stroke="rgb(0,0,0)" stroke-width="1" opacity="0.6509803921568628" d="M 509.5 376 L 510.5 378 L 509.5 376 Z " /><path fill="rgb(0,0,0)" stroke="rgb(0,0,0)" stroke-width="1" opacity="0.6509803921568628" d="M 136.5 486 L 139.5 490 L 136.5 486 Z " /><path fill="rgb(0,0,0)" stroke="rgb(0,0,0)" stroke-width="1" opacity="0.6509803921568628" d="M 375.5 486 L 372.5 490 L 375.5 486 Z " /><path fill="rgb(0,0,0)" stroke="rgb(0,0,0)" stroke-width="1" opacity="0.6509803921568628" d="M 511.5 499 L 512 501.5 L 511 501.5 L 511.5 499 Z " /><path fill="rgb(0,0,0)" stroke="rgb(0,0,0)" stroke-width="1" opacity="0.6509803921568628" d="M 135.5 509 L 134.5 511 L 135.5 509 Z " /><path fill="rgb(0,0,0)" stroke="rgb(0,0,0)" stroke-width="1" opacity="0.6509803921568628" d="M 376.5 509 L 377.5 511 L 376.5 509 Z " /><path fill="rgb(0,0,0)" stroke="rgb(0,0,0)" stroke-width="1" opacity="0.996078431372549" d="M 5.5 3 L 3.5 6 L 5.5 3 Z " /><path fill="rgb(0,0,0)" stroke="rgb(0,0,0)" stroke-width="1" opacity="0.996078431372549" d="M 136.5 3 L 139.5 7 L 136.5 3 Z " /><path fill="rgb(0,0,0)" stroke="rgb(0,0,0)" stroke-width="1" opacity="0.996078431372549" d="M 375.5 3 L 372.5 7 L 375.5 3 Z " /><path fill="rgb(0,0,0)" stroke="rgb(0,0,0)" stroke-width="1" opacity="0.996078431372549" d="M 506.5 3 L 508.5 6 L 506.5 3 Z " /><path fill="rgb(0,0,0)" stroke="rgb(0,0,0)" stroke-width="1" opacity="0.996078431372549" d="M 0.5 12 L 1 14.5 L 0 14.5 L 0.5 12 Z " /><path fill="rgb(0,0,0)" stroke="rgb(0,0,0)" stroke-width="1" opacity="0.996078431372549" d="M 3.5 136 L 6.5 140 L 3.5 136 Z " /><path fill="rgb(0,0,0)" stroke="rgb(0,0,0)" stroke-width="1" opacity="0.996078431372549" d="M 508.5 136 L 505.5 140 L 508.5 136 Z " /><path fill="rgb(0,0,0)" stroke="rgb(0,0,0)" stroke-width="1" opacity="0.996078431372549" d="M 344.5 148 L 343.5 150 L 344.5 148 Z " /><path fill="rgb(0,0,0)" stroke="rgb(0,0,0)" stroke-width="1" opacity="0.996078431372549" d="M 166.5 165 L 165.5 167 L 166.5 165 Z " /><path fill="rgb(0,0,0)" stroke="rgb(0,0,0)" stroke-width="1" opacity="0.996078431372549" d="M 363.5 167 L 362.5 169 L 363.5 167 Z " /><path fill="rgb(0,0,0)" stroke="rgb(0,0,0)" stroke-width="1" opacity="0.996078431372549" d="M 165.5 345 L 166.5 347 L 165.5 345 Z " /><path fill="rgb(0,0,0)" stroke="rgb(0,0,0)" stroke-width="1" opacity="0.996078431372549" d="M 346.5 345 L 345.5 347 L 346.5 345 Z " /><path fill="rgb(0,0,0)" stroke="rgb(0,0,0)" stroke-width="1" opacity="0.996078431372549" d="M 6.5 372 L 3.5 376 L 6.5 372 Z " /><path fill="rgb(0,0,0)" stroke="rgb(0,0,0)" stroke-width="1" opacity="0.996078431372549" d="M 505.5 372 L 508.5 376 L 505.5 372 Z " /><path fill="rgb(0,0,0)" stroke="rgb(0,0,0)" stroke-width="1" opacity="0.996078431372549" d="M 0.5 497 L 1 499.5 L 0 499.5 L 0.5 497 Z " /><path fill="rgb(0,0,0)" stroke="rgb(0,0,0)" stroke-width="1" opacity="0.996078431372549" d="M 139.5 505 L 136.5 509 L 139.5 505 Z " /><path fill="rgb(0,0,0)" stroke="rgb(0,0,0)" stroke-width="1" opacity="0.996078431372549" d="M 372.5 505 L 375.5 509 L 372.5 505 Z " /><path fill="rgb(0,0,0)" stroke="rgb(0,0,0)" stroke-width="1" opacity="0.996078431372549" d="M 3.5 506 L 5.5 509 L 3.5 506 Z " /><path fill="rgb(0,0,0)" stroke="rgb(0,0,0)" stroke-width="1" opacity="0.996078431372549" d="M 508.5 506 L 506.5 509 L 508.5 506 Z " /><path fill="rgb(0,0,0)" stroke="rgb(0,0,0)" stroke-width="1" opacity="1" d="M 14.5 0 L 127.5 0 L 134.5 2 L 140 7.5 L 142 15.5 Q 140.9 22.9 135.5 26 L 130.5 28 L 48 28.5 L 167 147.5 Q 170.8 150.7 170 158.5 Q 168.5 165 163.5 168 Q 160.2 170.7 153.5 170 L 147.5 167 L 28.5 48 L 28 130.5 Q 26.8 136.3 22.5 139 Q 19.3 142.3 12.5 142 Q 5.3 140.2 2 134.5 L 0 127.5 L 0 15.5 L 2 7.5 L 7.5 2 L 14.5 0 Z " /><path fill="rgb(0,0,0)" stroke="rgb(0,0,0)" stroke-width="1" opacity="1" d="M 384.5 0 L 497.5 0 L 504.5 2 L 510 7.5 L 512 15.5 L 512 127.5 L 510 134.5 L 504.5 140 L 496.5 142 Q 489.1 140.9 486 135.5 L 484 130.5 L 483.5 48 L 364.5 167 Q 361 171.5 351.5 170 L 344 164.5 Q 340.7 160.8 342 152.5 L 345 147.5 L 464 28.5 L 381.5 28 Q 375.8 26.8 373 22.5 Q 369.7 19.3 370 12.5 Q 371.8 5.3 377.5 2 L 384.5 0 Z " /><path fill="rgb(0,0,0)" stroke="rgb(0,0,0)" stroke-width="1" opacity="1" d="M 153.5 342 Q 164.4 341.6 168 348.5 Q 170.7 351.8 170 358.5 L 167 364.5 L 48 483.5 L 130.5 484 Q 136.3 485.3 139 489.5 Q 142.3 492.7 142 499.5 Q 140.2 506.7 134.5 510 L 127.5 512 L 14.5 512 L 7.5 510 L 2 504.5 L 0 496.5 L 0 384.5 L 2 377.5 L 7.5 372 L 15.5 370 Q 22.9 371.1 26 376.5 L 28 381.5 L 28.5 464 L 147.5 345 L 153.5 342 Z " /><path fill="rgb(0,0,0)" stroke="rgb(0,0,0)" stroke-width="1" opacity="1" d="M 353.5 342 Q 361.3 341.2 364.5 345 L 483.5 464 L 484 381.5 Q 485.3 375.8 489.5 373 Q 492.7 369.7 499.5 370 Q 506.7 371.8 510 377.5 L 512 384.5 L 512 496.5 L 510 504.5 L 504.5 510 L 497.5 512 L 384.5 512 L 377.5 510 L 372 504.5 L 370 496.5 Q 371.1 489.1 376.5 486 L 381.5 484 L 464 483.5 L 345 364.5 L 342 358.5 L 342 353.5 Q 343.5 347 348.5 344 L 353.5 342 Z " /></svg>