<?xml version="1.0" encoding="UTF-8"?>
<svg version="1.1" xmlns="http://www.w3.org/2000/svg" width="500" height="500">
<path d="M0 0 C165 0 330 0 500 0 C500 165 500 330 500 500 C335 500 170 500 0 500 C0 335 0 170 0 0 Z " fill="#131033" transform="translate(0,0)"/>
<path d="M0 0 C1.09731445 0.01353516 1.09731445 0.01353516 2.21679688 0.02734375 C3.99884298 0.05063847 5.78071759 0.0864981 7.5625 0.125 C6.83675781 0.84816406 6.11101562 1.57132813 5.36328125 2.31640625 C-11.01067182 18.73603283 -20.79787286 35.28324935 -20.9375 58.875 C-20.94394531 59.90407471 -20.95039063 60.93314941 -20.95703125 61.9934082 C-20.6373026 81.21863039 -12.63799758 99.09886997 0.875 112.6875 C2.09860075 113.83927512 3.32762605 114.98531976 4.5625 116.125 C5.90051165 117.45363854 7.2350403 118.7858188 8.5625 120.125 C-8.08633047 121.12061112 -23.23588562 116.13962776 -36.1875 105.5 C-46.12754686 96.03502891 -54.65912945 82.47203219 -55.61450195 68.54467773 C-56.05103791 49.05360813 -54.03895583 32.80475753 -40.2109375 17.76953125 C-29.12531322 7.48969023 -15.3491304 -0.36512113 0 0 Z " fill="#FBFBFC" transform="translate(240.4375,152.875)"/>
<path d="M0 0 C1.42119141 0.63615234 1.42119141 0.63615234 2.87109375 1.28515625 C17.91709773 8.77685587 28.17153077 21.43258697 34 37 C36.05794324 44.2864976 36.26217969 51.4696168 36 59 C35.38125 58.360625 34.7625 57.72125 34.125 57.0625 C33.08649079 56.03845471 32.04424382 55.01819692 31 54 C29.97712891 52.98292969 29.97712891 52.98292969 28.93359375 51.9453125 C19.44971791 42.91453781 8.54165027 36.80964414 -4 33 C-5.0003125 32.64421875 -6.000625 32.2884375 -7.03125 31.921875 C-23.57781261 27.27479335 -42.87475615 30.70658455 -57.8125 38.3125 C-66.30109563 43.14986495 -73.26673932 48.97185199 -80 56 C-81.33096718 57.3356953 -82.66377127 58.66956836 -84 60 C-84.75757915 42.6037381 -79.99974842 27.77053982 -68.625 14.5 C-51.21424438 -3.47720143 -23.28501766 -10.5126451 0 0 Z " fill="#FCFCFC" transform="translate(316,157)"/>
<path d="M0 0 C0.66 0 1.32 0 2 0 C3.14369449 15.28102917 -1.84361184 31.09212518 -11.83959961 42.74902344 C-21.90891392 53.9111991 -35.25893777 62.82466545 -50.56982422 64.23706055 C-69.31392217 65.15047345 -84.03078135 62.2970484 -98.65625 49.71484375 C-108.99664253 39.88835627 -117.71764089 26.89906155 -118.09765625 12.23046875 C-118.09108215 10.88277758 -118.07926444 9.53510293 -118.0625 8.1875 C-118.05798828 7.49462891 -118.05347656 6.80175781 -118.04882812 6.08789062 C-118.03713156 4.39188932 -118.01919924 2.69593297 -118 1 C-117.2678125 1.73605469 -116.535625 2.47210938 -115.78125 3.23046875 C-98.26697739 20.67094527 -80.2726537 29.44857447 -55.54931641 29.43603516 C-46.42435923 29.25753324 -38.4460518 27.36215224 -30 24 C-28.92492187 23.5771875 -27.84984375 23.154375 -26.7421875 22.71875 C-15.95611574 17.87487443 -6.40345083 9.93638922 0 0 Z " fill="#FCFCFC" transform="translate(303,256)"/>
<path d="M0 0 C17.01604288 -0.92070773 32.67488009 4.62452778 45.6875 15.7109375 C56.77837977 26.68940971 64.14462058 40.45678092 64.32983398 56.20458984 C64.20449229 74.6104002 59.81930941 90.01704418 46.59765625 103.59765625 C39.22037885 110.42025114 31.40838657 114.56825244 22 118 C21.05382812 118.37253906 20.10765625 118.74507813 19.1328125 119.12890625 C15.4133371 120.16312447 11.94710012 120.22129322 8.125 120.125 C7.43664062 120.11597656 6.74828125 120.10695313 6.0390625 120.09765625 C4.35922162 120.07432513 2.67956254 120.03846326 1 120 C4.27302199 115.84498471 7.7785521 112.1343323 11.59375 108.46875 C25.70824953 93.84099594 29.55938688 73.92901587 29.2734375 54.37109375 C28.62096189 36.02102462 19.67138823 19.03984932 6.42578125 6.578125 C4.85257164 5.18520472 3.26317147 3.81017782 1.65234375 2.4609375 C1.10707031 1.97882813 0.56179688 1.49671875 0 1 C0 0.67 0 0.34 0 0 Z " fill="#FCFCFC" transform="translate(288,200)"/>
</svg>
